<svg xmlns="http://www.w3.org/2000/svg" xmlns:xlink="http://www.w3.org/1999/xlink" width="1920" zoomAndPan="magnify" viewBox="0 0 1440 359.999987" height="480" preserveAspectRatio="xMidYMid meet" version="1.0"><defs><g/><clipPath id="280233b759"><path d="M 129.816406 13.457031 L 462.902344 13.457031 L 462.902344 346.542969 L 129.816406 346.542969 Z M 129.816406 13.457031 " clip-rule="nonzero"/></clipPath><clipPath id="a5fe47bd72"><path d="M 296.359375 13.457031 C 204.382812 13.457031 129.816406 88.023438 129.816406 180 C 129.816406 271.976562 204.382812 346.542969 296.359375 346.542969 C 388.335938 346.542969 462.902344 271.976562 462.902344 180 C 462.902344 88.023438 388.335938 13.457031 296.359375 13.457031 Z M 296.359375 13.457031 " clip-rule="nonzero"/></clipPath><clipPath id="7a2530ceea"><path d="M 0.816406 0.457031 L 333.902344 0.457031 L 333.902344 333.542969 L 0.816406 333.542969 Z M 0.816406 0.457031 " clip-rule="nonzero"/></clipPath><clipPath id="a3898c1635"><path d="M 167.359375 0.457031 C 75.382812 0.457031 0.816406 75.023438 0.816406 167 C 0.816406 258.976562 75.382812 333.542969 167.359375 333.542969 C 259.335938 333.542969 333.902344 258.976562 333.902344 167 C 333.902344 75.023438 259.335938 0.457031 167.359375 0.457031 Z M 167.359375 0.457031 " clip-rule="nonzero"/></clipPath><clipPath id="776823f483"><rect x="0" width="334" y="0" height="334"/></clipPath></defs><g clip-path="url(#280233b759)"><g clip-path="url(#a5fe47bd72)"><g transform="matrix(1, 0, 0, 1, 129, 13)"><g clip-path="url(#776823f483)"><g clip-path="url(#7a2530ceea)"><g clip-path="url(#a3898c1635)"><path fill="#00f7ff" d="M 0.816406 0.457031 L 333.902344 0.457031 L 333.902344 333.542969 L 0.816406 333.542969 Z M 0.816406 0.457031 " fill-opacity="1" fill-rule="nonzero"/></g></g></g></g></g></g><path fill="#ffffff" d="M 234.949219 172.554688 C 234.949219 172.554688 206.671875 180.214844 208.292969 193.171875 C 209.910156 206.125 220 221.445312 231.710938 234.773438 C 243.417969 248.105469 249.085938 251.34375 255.128906 257.820312 C 261.167969 264.296875 260.796875 267.910156 262.414062 270.339844 C 264.035156 272.765625 252.699219 279.246094 255.5625 283.292969 C 258.429688 287.339844 257.554688 282.917969 266.898438 286.097656 C 276.179688 289.335938 276.613281 290.144531 284.277344 288.089844 C 291.9375 286.097656 293.183594 286.46875 298.414062 285.660156 C 303.644531 284.851562 305.265625 288.898438 306.074219 283.230469 C 306.882812 277.5625 295.175781 277.5625 297.167969 269.902344 C 299.160156 262.242188 328.246094 236.769531 340.828125 221.820312 C 353.347656 206.871094 373.152344 185.449219 380.003906 176.976562 C 386.855469 168.507812 391.339844 150.695312 378.820312 139.792969 C 366.300781 128.894531 357.019531 136.992188 350.542969 143.40625 C 344.066406 149.882812 328.746094 185.449219 325.507812 190.242188 C 322.269531 195.101562 304.515625 222.566406 300.03125 232.65625 C 295.609375 242.746094 287.078125 262.988281 286.703125 261.371094 C 286.332031 259.75 286.332031 255.703125 286.703125 249.226562 C 287.078125 242.746094 289.132812 235.894531 293.183594 225.371094 C 297.230469 214.84375 298.039062 210.421875 302.460938 205.191406 C 306.882812 199.960938 327.5 171.246094 333.167969 157.546875 C 338.835938 143.78125 356.210938 107.46875 359.449219 100.558594 C 362.6875 93.707031 367.921875 90.46875 361.441406 82.804688 C 354.964844 75.144531 331.921875 69.851562 323.078125 81.1875 C 314.171875 92.523438 321.457031 93.707031 320.273438 98.128906 C 319.089844 102.550781 299.285156 166.015625 298.847656 168.445312 C 298.476562 170.875 298.847656 153.496094 301.652344 142.972656 C 304.453125 132.445312 299.222656 127.214844 289.507812 121.546875 C 279.792969 115.878906 268.890625 118.742188 268.890625 118.742188 C 268.890625 118.742188 272.503906 94.515625 262.414062 87.230469 C 252.324219 79.941406 228.097656 79.132812 217.136719 94.078125 C 206.234375 109.027344 201.378906 115.070312 207.855469 127.214844 C 214.332031 139.359375 234.949219 172.554688 234.949219 172.554688 Z M 234.949219 172.554688 " fill-opacity="1" fill-rule="nonzero"/><path fill="#ffffff" d="M 325.816406 98.75 C 325.816406 98.75 325.753906 98.75 325.753906 98.75 C 325.445312 98.75 325.195312 99 325.132812 99.25 C 325.070312 99.558594 325.195312 99.808594 325.445312 99.996094 C 325.445312 99.996094 327.75 101.554688 331.984375 102.800781 C 336.21875 103.984375 342.386719 104.855469 350.230469 103.546875 C 350.480469 103.546875 350.730469 103.359375 350.792969 103.109375 C 350.917969 102.863281 350.855469 102.613281 350.667969 102.425781 C 350.480469 102.238281 350.230469 102.113281 349.984375 102.175781 C 342.382812 103.421875 336.40625 102.613281 332.355469 101.429688 C 328.308594 100.246094 326.191406 98.8125 326.191406 98.8125 C 326.066406 98.8125 325.941406 98.75 325.816406 98.75 Z M 260.796875 111.082031 C 260.796875 111.082031 260.734375 111.082031 260.734375 111.082031 C 260.546875 111.082031 260.421875 111.144531 260.296875 111.269531 C 242.046875 127.152344 212.960938 123.351562 212.960938 123.351562 C 212.714844 123.289062 212.464844 123.414062 212.277344 123.601562 C 212.089844 123.789062 212.089844 124.101562 212.152344 124.285156 C 212.214844 124.472656 212.464844 124.660156 212.714844 124.722656 C 212.714844 124.722656 242.296875 128.769531 261.167969 112.328125 C 261.417969 112.140625 261.480469 111.828125 261.355469 111.582031 C 261.292969 111.332031 261.042969 111.144531 260.796875 111.082031 Z M 267.707031 118.121094 C 267.707031 118.121094 267.644531 118.121094 267.707031 118.121094 C 267.644531 118.121094 267.582031 118.121094 267.523438 118.183594 C 267.523438 118.183594 263.222656 119.617188 258.800781 122.480469 C 254.378906 125.28125 249.707031 129.582031 249.273438 135.371094 C 248.835938 140.914062 249.707031 143.53125 250.890625 145.585938 C 252.074219 147.640625 253.382812 149.011719 254.128906 152.5 C 254.941406 156.238281 257.371094 164.332031 259.734375 172.617188 C 262.101562 180.839844 264.40625 189.183594 265.03125 192.859375 C 265.652344 196.722656 266.773438 203.945312 267.582031 211.171875 C 268.457031 218.394531 269.015625 225.558594 268.640625 229.046875 C 268.457031 230.976562 268.640625 234.152344 269.015625 237.890625 C 269.390625 241.625 269.949219 245.863281 270.574219 249.910156 C 271.007812 252.773438 271.445312 255.453125 271.820312 257.820312 C 271.070312 255.578125 270.324219 253.273438 269.578125 251.15625 C 266.339844 241.378906 257.804688 223.625 253.382812 215.09375 C 251.265625 210.984375 250.144531 205.316406 249.398438 199.585938 C 248.648438 193.855469 248.214844 188.125 247.40625 183.765625 C 245.722656 174.859375 236.070312 171.496094 236.070312 171.496094 C 236.007812 171.433594 235.882812 171.433594 235.820312 171.433594 C 235.507812 171.433594 235.195312 171.683594 235.195312 172.058594 C 235.132812 172.367188 235.320312 172.679688 235.695312 172.804688 C 235.695312 172.804688 244.601562 175.980469 246.160156 184.015625 C 246.96875 188.1875 247.34375 193.917969 248.152344 199.710938 C 248.898438 205.503906 250.019531 211.292969 252.324219 215.71875 C 256.746094 224.1875 265.21875 242 268.457031 251.589844 C 270.074219 256.449219 271.882812 261.804688 273.3125 266.164062 C 274 268.34375 274.621094 270.339844 275.058594 271.832031 C 275.492188 273.328125 275.679688 274.511719 275.679688 274.824219 C 275.679688 275.007812 275.742188 275.195312 275.867188 275.320312 C 275.679688 275.320312 275.429688 275.320312 275.121094 275.320312 C 274 275.320312 273.1875 275.382812 272.691406 275.382812 C 272.128906 275.382812 271.882812 275.382812 271.632812 275.257812 C 271.132812 275.070312 270.386719 274.324219 268.394531 272.269531 C 267.335938 271.210938 266.523438 270.585938 265.777344 270.277344 C 265.03125 269.964844 264.34375 269.964844 263.847656 270.214844 C 262.851562 270.710938 262.789062 271.832031 262.789062 271.832031 C 262.726562 272.207031 263.039062 272.582031 263.410156 272.582031 C 263.785156 272.644531 264.160156 272.332031 264.160156 271.957031 C 264.160156 271.957031 264.28125 271.460938 264.46875 271.398438 C 264.59375 271.335938 264.71875 271.273438 265.21875 271.523438 C 265.714844 271.707031 266.460938 272.207031 267.398438 273.203125 C 269.390625 275.195312 270.074219 276.070312 271.132812 276.503906 C 271.632812 276.691406 272.128906 276.753906 272.753906 276.691406 C 273.375 276.691406 274.0625 276.628906 275.183594 276.628906 C 276.367188 276.628906 276.988281 276.566406 277.488281 276.191406 C 277.734375 276.007812 277.921875 275.757812 278.046875 275.570312 C 278.109375 275.320312 278.109375 275.132812 278.171875 275.070312 C 278.296875 275.007812 278.855469 274.949219 279.976562 275.007812 C 281.160156 275.132812 281.847656 275.257812 282.28125 275.445312 C 282.71875 275.632812 282.90625 275.757812 283.214844 276.007812 C 283.527344 276.191406 283.902344 276.503906 284.523438 276.628906 C 285.085938 276.753906 285.832031 276.753906 287.015625 276.691406 C 289.257812 276.503906 289.570312 276.503906 290.066406 276.316406 C 290.566406 276.128906 290.441406 276.007812 292 275.382812 C 295.484375 274.074219 296.792969 271.398438 296.792969 271.398438 C 296.980469 271.085938 296.792969 270.648438 296.484375 270.464844 C 296.171875 270.277344 295.734375 270.402344 295.546875 270.773438 C 295.546875 270.773438 294.488281 272.953125 291.5 274.074219 C 289.820312 274.699219 289.507812 275.007812 289.507812 275.007812 C 289.507812 275.007812 289.070312 275.070312 286.828125 275.257812 C 285.769531 275.382812 285.148438 275.320312 284.773438 275.257812 C 284.398438 275.195312 284.277344 275.070312 284.027344 274.886719 C 283.777344 274.699219 283.402344 274.386719 282.78125 274.199219 C 282.15625 273.949219 281.347656 273.765625 280.101562 273.703125 C 278.855469 273.578125 278.171875 273.640625 277.609375 273.828125 C 277.425781 273.886719 277.175781 274.074219 277.050781 274.261719 C 276.988281 273.578125 276.738281 272.707031 276.367188 271.460938 C 275.929688 269.902344 275.308594 267.972656 274.621094 265.730469 C 274.621094 265.667969 274.558594 265.605469 274.558594 265.480469 C 274.683594 265.292969 274.683594 265.105469 274.683594 264.917969 C 274.683594 264.917969 273.375 257.757812 272.191406 249.660156 C 271.570312 245.613281 271.007812 241.378906 270.636719 237.703125 C 270.261719 234.027344 270.074219 230.851562 270.261719 229.167969 C 270.699219 225.371094 270.074219 218.207031 269.203125 210.984375 C 268.332031 203.757812 267.210938 196.472656 266.648438 192.609375 C 266.027344 188.625 263.722656 180.402344 261.355469 172.179688 C 258.988281 163.960938 256.558594 155.738281 255.75 152.1875 C 254.941406 148.453125 253.382812 146.769531 252.324219 144.902344 C 251.265625 143.035156 250.519531 140.792969 250.890625 135.433594 C 251.265625 130.328125 255.5 126.339844 259.734375 123.601562 C 263.972656 120.859375 268.144531 119.492188 268.144531 119.492188 C 268.457031 119.367188 268.703125 119.054688 268.640625 118.742188 C 268.332031 118.371094 268.019531 118.121094 267.707031 118.121094 Z M 292.808594 141.914062 C 292.808594 141.914062 292.746094 141.914062 292.746094 141.914062 C 292.621094 141.914062 292.496094 141.976562 292.371094 142.035156 C 286.269531 146.398438 277.671875 146.644531 270.386719 145.835938 C 266.773438 145.398438 263.410156 144.714844 260.917969 144.15625 C 259.675781 143.84375 258.613281 143.59375 257.804688 143.40625 C 257.433594 143.34375 257.058594 143.21875 256.746094 143.21875 C 256.433594 143.15625 256.25 143.15625 256 143.15625 C 255.75 143.15625 255.5 143.34375 255.4375 143.59375 C 255.3125 143.84375 255.375 144.09375 255.5625 144.277344 C 255.75 144.464844 256 144.589844 256.25 144.527344 C 256.1875 144.527344 256.371094 144.527344 256.558594 144.589844 C 256.808594 144.652344 257.121094 144.714844 257.492188 144.777344 C 258.304688 144.964844 259.363281 145.214844 260.609375 145.523438 C 263.160156 146.085938 266.523438 146.832031 270.199219 147.269531 C 277.609375 148.140625 286.578125 147.953125 293.121094 143.21875 C 293.367188 143.035156 293.492188 142.722656 293.367188 142.472656 C 293.367188 142.097656 293.121094 141.914062 292.808594 141.914062 Z M 333.539062 142.472656 C 333.476562 142.472656 333.417969 142.472656 333.355469 142.535156 C 327.871094 143.96875 323.824219 143.96875 321.148438 143.59375 C 318.46875 143.21875 317.285156 142.597656 317.285156 142.597656 C 317.160156 142.535156 317.035156 142.472656 316.910156 142.535156 C 316.601562 142.535156 316.351562 142.785156 316.289062 143.097656 C 316.226562 143.40625 316.414062 143.71875 316.664062 143.84375 C 316.664062 143.84375 318.15625 144.589844 321.023438 144.964844 C 323.886719 145.335938 328.121094 145.335938 333.726562 143.90625 C 334.101562 143.84375 334.351562 143.53125 334.289062 143.15625 C 334.226562 142.722656 333.914062 142.472656 333.539062 142.472656 Z M 247.03125 146.582031 C 246.96875 146.582031 246.90625 146.582031 246.84375 146.644531 C 240.863281 148.578125 229.34375 150.320312 229.34375 150.320312 C 228.96875 150.382812 228.71875 150.757812 228.78125 151.128906 C 228.84375 151.503906 229.21875 151.753906 229.589844 151.691406 C 229.589844 151.691406 241.050781 150.007812 247.28125 148.015625 C 247.589844 147.890625 247.839844 147.578125 247.777344 147.207031 C 247.652344 146.769531 247.34375 146.519531 247.03125 146.582031 Z M 348.925781 154.183594 C 348.675781 154.183594 348.425781 154.304688 348.300781 154.554688 C 348.175781 154.804688 348.238281 155.054688 348.425781 155.304688 C 348.425781 155.304688 358.203125 167.449219 371.90625 171.558594 C 372.15625 171.621094 372.40625 171.621094 372.589844 171.433594 C 372.777344 171.246094 372.839844 171 372.777344 170.75 C 372.714844 170.5 372.53125 170.3125 372.28125 170.25 C 359.140625 166.328125 349.484375 154.492188 349.484375 154.492188 C 349.359375 154.304688 349.171875 154.183594 348.925781 154.183594 Z M 252.636719 162.714844 C 252.511719 162.714844 252.386719 162.777344 252.324219 162.777344 C 245.972656 166.328125 239.308594 165.394531 239.308594 165.394531 C 239.058594 165.332031 238.808594 165.453125 238.621094 165.640625 C 238.4375 165.828125 238.4375 166.078125 238.496094 166.328125 C 238.621094 166.574219 238.808594 166.699219 239.058594 166.761719 C 239.058594 166.761719 246.097656 167.757812 252.949219 164.023438 C 253.257812 163.898438 253.382812 163.523438 253.320312 163.214844 C 253.257812 162.902344 252.949219 162.652344 252.636719 162.714844 Z M 298.789062 166.574219 C 298.414062 166.574219 298.101562 166.886719 298.101562 167.261719 C 298.101562 167.261719 298.039062 167.757812 297.914062 168.382812 C 297.789062 169.003906 297.605469 169.878906 297.355469 170.875 C 296.855469 172.867188 296.171875 175.542969 295.363281 178.535156 C 293.804688 184.511719 291.875 191.925781 290.441406 198.214844 C 287.636719 210.671875 283.964844 215.46875 283.589844 223.003906 C 283.15625 230.476562 286.019531 243.742188 285.582031 255.328125 C 285.398438 261.246094 286.207031 264.546875 287.078125 266.851562 C 287.949219 269.15625 288.820312 270.464844 288.820312 272.707031 C 288.820312 272.953125 288.945312 273.203125 289.132812 273.328125 C 289.320312 273.453125 289.632812 273.453125 289.820312 273.328125 C 290.003906 273.203125 290.191406 272.953125 290.128906 272.707031 C 290.128906 270.089844 289.132812 268.53125 288.324219 266.351562 C 287.515625 264.171875 286.703125 261.121094 286.890625 255.328125 C 287.328125 243.496094 284.460938 230.105469 284.898438 223.003906 C 285.273438 215.964844 288.882812 211.109375 291.75 198.464844 C 293.183594 192.238281 295.050781 184.824219 296.667969 178.847656 C 297.480469 175.855469 298.164062 173.179688 298.664062 171.183594 C 298.910156 170.1875 299.097656 169.316406 299.285156 168.695312 C 299.410156 168.007812 299.535156 167.636719 299.535156 167.261719 C 299.535156 167.074219 299.472656 166.886719 299.347656 166.761719 C 299.160156 166.699219 298.972656 166.574219 298.789062 166.574219 Z M 289.570312 167.074219 C 289.445312 167.074219 289.320312 167.074219 289.257812 167.136719 C 279.542969 171.871094 266.214844 169.253906 266.214844 169.253906 C 265.964844 169.191406 265.714844 169.253906 265.527344 169.441406 C 265.339844 169.628906 265.28125 169.878906 265.402344 170.125 C 265.464844 170.375 265.714844 170.5625 265.964844 170.5625 C 265.964844 170.5625 279.542969 173.363281 289.878906 168.320312 C 290.191406 168.195312 290.316406 167.882812 290.253906 167.574219 C 290.191406 167.324219 289.941406 167.074219 289.570312 167.074219 Z M 320.398438 172.742188 C 320.398438 172.742188 320.335938 172.742188 320.335938 172.742188 C 320.210938 172.742188 320.148438 172.804688 320.027344 172.867188 C 314.855469 175.792969 310.746094 176.105469 307.941406 175.730469 C 305.140625 175.359375 303.644531 174.300781 303.644531 174.300781 C 303.457031 174.113281 303.148438 174.113281 302.960938 174.175781 C 302.710938 174.300781 302.585938 174.484375 302.523438 174.796875 C 302.523438 175.046875 302.648438 175.296875 302.835938 175.421875 C 302.835938 175.421875 304.640625 176.664062 307.753906 177.101562 C 310.871094 177.539062 315.292969 177.101562 320.710938 174.050781 C 320.960938 173.925781 321.148438 173.613281 321.023438 173.300781 C 321.023438 172.992188 320.710938 172.742188 320.398438 172.742188 Z M 339.207031 177.910156 C 338.898438 177.910156 338.648438 178.160156 338.523438 178.472656 C 338.460938 178.785156 338.585938 179.09375 338.898438 179.21875 C 338.835938 179.15625 338.898438 179.21875 339.023438 179.34375 C 339.144531 179.46875 339.269531 179.59375 339.457031 179.84375 C 339.832031 180.214844 340.328125 180.839844 340.953125 181.460938 C 342.136719 182.769531 343.753906 184.511719 345.6875 186.257812 C 349.546875 189.683594 354.65625 193.171875 360.320312 193.359375 C 360.695312 193.359375 361.007812 193.046875 361.007812 192.671875 C 361.007812 192.296875 360.695312 191.988281 360.320312 191.988281 C 355.152344 191.863281 350.292969 188.625 346.558594 185.261719 C 344.6875 183.578125 343.132812 181.898438 341.949219 180.589844 C 341.386719 179.90625 340.890625 179.40625 340.453125 178.96875 C 340.265625 178.785156 340.082031 178.597656 339.957031 178.410156 C 339.832031 178.285156 339.707031 178.160156 339.457031 178.035156 C 339.457031 177.910156 339.332031 177.910156 339.207031 177.910156 Z M 285.210938 194.976562 C 285.085938 194.976562 285.023438 194.976562 284.898438 195.039062 C 280.851562 196.90625 277.550781 197.09375 275.183594 196.78125 C 272.878906 196.472656 271.570312 195.785156 271.570312 195.785156 C 271.382812 195.660156 271.070312 195.660156 270.882812 195.785156 C 270.636719 195.910156 270.511719 196.160156 270.511719 196.410156 C 270.511719 196.660156 270.636719 196.90625 270.882812 197.03125 C 270.882812 197.03125 272.441406 197.902344 274.996094 198.214844 C 277.550781 198.527344 281.160156 198.339844 285.457031 196.347656 C 285.769531 196.222656 285.894531 195.910156 285.832031 195.601562 C 285.832031 195.164062 285.519531 194.976562 285.210938 194.976562 Z M 327.25 199.898438 C 327.25 199.898438 327.1875 199.898438 327.1875 199.898438 C 327 199.898438 326.8125 200.023438 326.75 200.144531 C 326.628906 200.269531 326.566406 200.457031 326.628906 200.644531 C 326.628906 200.644531 327.625 209.425781 336.839844 212.355469 C 337.089844 212.414062 337.339844 212.355469 337.527344 212.230469 C 337.714844 212.042969 337.777344 211.792969 337.714844 211.542969 C 337.652344 211.292969 337.464844 211.109375 337.277344 211.046875 C 328.808594 208.304688 328.058594 200.519531 328.058594 200.519531 C 327.871094 200.144531 327.625 199.898438 327.25 199.898438 Z M 293.554688 201.019531 C 293.554688 201.019531 293.492188 201.019531 293.492188 201.019531 C 293.242188 201.019531 293.058594 201.144531 292.933594 201.328125 C 292.808594 201.515625 292.808594 201.765625 292.871094 201.953125 C 292.871094 201.953125 292.996094 202.265625 293.242188 202.511719 C 293.492188 202.761719 293.929688 203.074219 294.488281 203.261719 C 295.671875 203.695312 297.605469 203.820312 300.84375 202.949219 C 301.089844 202.886719 301.277344 202.699219 301.339844 202.449219 C 301.402344 202.203125 301.339844 201.953125 301.152344 201.765625 C 300.96875 201.578125 300.71875 201.515625 300.46875 201.578125 C 297.417969 202.386719 295.734375 202.265625 294.925781 201.953125 C 294.550781 201.828125 294.304688 201.640625 294.242188 201.515625 C 294.117188 201.390625 294.179688 201.390625 294.179688 201.390625 C 294.054688 201.203125 293.804688 201.019531 293.554688 201.019531 Z M 237.253906 204.195312 C 237.128906 204.195312 237.066406 204.195312 236.941406 204.257812 C 232.769531 206.375 228.90625 207.183594 225.917969 207.496094 C 222.925781 207.808594 220.808594 207.621094 219.875 207.621094 C 219.625 207.621094 219.378906 207.746094 219.253906 207.929688 C 219.128906 208.117188 219.128906 208.429688 219.253906 208.617188 C 219.378906 208.804688 219.625 208.992188 219.875 208.929688 C 220.621094 208.929688 222.925781 209.113281 226.105469 208.804688 C 229.21875 208.492188 233.265625 207.621094 237.625 205.441406 C 237.9375 205.316406 238.0625 205.003906 238 204.628906 C 237.9375 204.257812 237.5625 204.195312 237.253906 204.195312 Z M 245.847656 218.894531 C 245.847656 218.894531 245.785156 218.894531 245.847656 218.894531 C 245.660156 218.894531 245.535156 218.957031 245.410156 219.019531 C 238.808594 223.75 230.152344 223.75 230.152344 223.75 C 229.902344 223.75 229.652344 223.875 229.53125 224.0625 C 229.40625 224.25 229.40625 224.5625 229.53125 224.746094 C 229.652344 224.933594 229.902344 225.121094 230.152344 225.058594 C 230.152344 225.058594 239.121094 225.121094 246.222656 220.015625 C 246.46875 219.828125 246.59375 219.515625 246.46875 219.265625 C 246.34375 219.019531 246.160156 218.894531 245.847656 218.894531 Z M 310.058594 220.449219 C 309.8125 220.449219 309.625 220.574219 309.5 220.824219 C 309.375 221.011719 309.375 221.320312 309.5 221.507812 C 309.5 221.507812 310.433594 223.003906 312.738281 224.5625 C 315.105469 226.054688 318.964844 227.613281 324.882812 227.863281 C 325.132812 227.863281 325.382812 227.738281 325.507812 227.550781 C 325.632812 227.363281 325.632812 227.050781 325.570312 226.867188 C 325.507812 226.679688 325.195312 226.492188 324.945312 226.492188 C 319.214844 226.179688 315.601562 224.746094 313.484375 223.378906 C 311.367188 222.007812 310.683594 220.824219 310.683594 220.824219 C 310.558594 220.574219 310.308594 220.449219 310.058594 220.449219 Z M 255.625 236.769531 C 255.625 236.769531 255.5625 236.769531 255.5625 236.769531 C 255.4375 236.769531 255.3125 236.832031 255.191406 236.894531 C 253.132812 238.386719 250.269531 238.949219 247.902344 239.199219 C 245.535156 239.382812 243.667969 239.199219 243.667969 239.199219 C 243.417969 239.199219 243.167969 239.257812 243.042969 239.507812 C 242.921875 239.695312 242.859375 239.945312 242.980469 240.195312 C 243.105469 240.441406 243.292969 240.566406 243.542969 240.566406 C 243.542969 240.566406 245.472656 240.753906 248.027344 240.566406 C 250.519531 240.320312 253.632812 239.757812 256 238.015625 C 256.25 237.828125 256.371094 237.515625 256.25 237.265625 C 256.1875 236.957031 255.9375 236.769531 255.625 236.769531 Z M 262.976562 252.648438 C 262.976562 252.648438 262.914062 252.648438 262.914062 252.648438 C 262.789062 252.648438 262.726562 252.710938 262.601562 252.773438 C 260.609375 253.957031 259.175781 254.269531 258.304688 254.332031 C 257.867188 254.332031 257.554688 254.332031 257.371094 254.269531 C 257.183594 254.207031 257.183594 254.207031 257.183594 254.207031 C 256.933594 254.082031 256.683594 254.082031 256.496094 254.207031 C 256.3125 254.332031 256.1875 254.582031 256.1875 254.832031 C 256.1875 255.078125 256.371094 255.328125 256.621094 255.390625 C 256.621094 255.390625 256.871094 255.515625 257.183594 255.578125 C 257.492188 255.640625 257.929688 255.703125 258.492188 255.640625 C 259.613281 255.578125 261.230469 255.140625 263.410156 253.894531 C 263.660156 253.769531 263.785156 253.398438 263.722656 253.148438 C 263.660156 252.898438 263.285156 252.648438 262.976562 252.648438 Z M 262.976562 252.648438 " fill-opacity="1" fill-rule="nonzero"/><path fill="#053354" d="M 338.585938 80.128906 C 336.34375 80.191406 333.914062 80.625 332.109375 82.058594 C 327.25 85.796875 324.136719 85.796875 328.992188 88.910156 C 333.851562 92.023438 351.292969 93.769531 355.277344 89.78125 C 359.261719 85.796875 354.15625 83.179688 345.871094 81.1875 C 345.808594 81.1875 342.324219 80.066406 338.585938 80.128906 Z M 246.78125 88.410156 C 242.109375 88.347656 235.195312 88.722656 231.273438 90.902344 C 224.984375 94.328125 222.117188 96.632812 219.875 101.492188 C 217.570312 106.347656 208.476562 108.34375 211.59375 112.328125 C 214.707031 116.3125 225.292969 114.882812 235.011719 111.769531 C 244.726562 108.652344 251.578125 107.222656 255.3125 102.613281 C 259.050781 98.003906 259.050781 92.023438 251.578125 88.597656 C 251.515625 88.597656 249.585938 88.472656 246.78125 88.410156 Z M 275.429688 124.535156 C 274.996094 124.535156 274.558594 124.535156 274.125 124.597656 C 267.273438 125.160156 256.996094 124.910156 256.125 130.886719 C 255.25 136.867188 261.292969 136.617188 270.386719 138.050781 C 279.542969 139.484375 283.839844 139.484375 290.128906 137.492188 C 296.421875 135.496094 296.421875 131.199219 291.5625 128.894531 C 291.5625 128.894531 282.21875 124.597656 275.429688 124.535156 Z M 367.171875 140.105469 C 366.050781 140.105469 364.929688 140.355469 363.808594 140.914062 C 357.832031 143.78125 354.65625 144.03125 359.261719 149.511719 C 363.808594 154.929688 375.832031 165.515625 378.695312 163.773438 C 381.558594 162.03125 381.808594 149.511719 376.140625 143.78125 C 376.078125 143.71875 371.96875 139.980469 367.171875 140.105469 Z M 234.949219 178.035156 C 234.949219 178.035156 220.0625 179.78125 216.386719 185.199219 C 212.652344 190.617188 210.65625 192.921875 214.394531 194.601562 C 218.132812 196.347656 233.515625 194.042969 238.375 188.625 C 243.230469 183.144531 240.117188 178.597656 234.949219 178.035156 Z M 234.949219 178.035156 " fill-opacity="1" fill-rule="nonzero"/><g fill="#00f7ff" fill-opacity="1"><g transform="translate(500.726129, 285.87742)"><g><path d="M 0.703125 -46.953125 L 14.8125 -47 L 14.8125 -14.09375 L 25.890625 -14.09375 L 25.890625 0 L 0.703125 0 Z M 0.703125 -46.953125 "/></g></g></g><g fill="#00f7ff" fill-opacity="1"><g transform="translate(549.883672, 285.87742)"><g><path d="M 14.1875 0 L 0 0 L 12.125 -46.953125 L 26.3125 -46.953125 L 38.5 0 L 24.296875 0 L 23.3125 -4.46875 L 15.140625 -4.46875 Z M 19.21875 -23.5 L 17.671875 -16.21875 L 20.828125 -16.21875 Z M 19.21875 -23.5 "/></g></g></g><g fill="#00f7ff" fill-opacity="1"><g transform="translate(600.262356, 285.87742)"><g><path d="M 0 -46.953125 L 14.09375 -46.953125 L 18.890625 -23.453125 L 23.640625 -46.953125 L 37.734375 -46.953125 L 25.5625 0 L 12.171875 0 Z M 0 -46.953125 "/></g></g></g><g fill="#00f7ff" fill-opacity="1"><g transform="translate(649.936154, 285.87742)"><g><path d="M 14.1875 0 L 0 0 L 12.125 -46.953125 L 26.3125 -46.953125 L 38.5 0 L 24.296875 0 L 23.3125 -4.46875 L 15.140625 -4.46875 Z M 19.21875 -23.5 L 17.671875 -16.21875 L 20.828125 -16.21875 Z M 19.21875 -23.5 "/></g></g></g><g fill="#00f7ff" fill-opacity="1"><g transform="translate(706.236228, 285.87742)"><g><path d="M 0.703125 -23.875 C 0.703125 -28.632812 1.609375 -32.742188 3.421875 -36.203125 C 5.242188 -39.671875 7.960938 -42.335938 11.578125 -44.203125 C 15.203125 -46.066406 19.722656 -47 25.140625 -47 L 28.671875 -47 L 28.671875 -32.90625 L 25.140625 -32.90625 C 21.222656 -32.90625 18.460938 -32.070312 16.859375 -30.40625 C 15.265625 -28.75 14.46875 -26.445312 14.46875 -23.5 C 14.46875 -21.875 14.898438 -20.429688 15.765625 -19.171875 C 16.628906 -17.921875 17.78125 -16.9375 19.21875 -16.21875 L 19.21875 -23.5 L 28.671875 -23.5 L 28.671875 0 L 25.140625 0 C 19.722656 0 15.203125 -0.992188 11.578125 -2.984375 C 7.960938 -4.972656 5.242188 -7.757812 3.421875 -11.34375 C 1.609375 -14.9375 0.703125 -19.113281 0.703125 -23.875 Z M 0.703125 -23.875 "/></g></g></g><g fill="#00f7ff" fill-opacity="1"><g transform="translate(758.307254, 285.87742)"><g><path d="M 28.578125 0 L 0.703125 0 L 0.703125 -46.953125 L 28.578125 -46.953125 L 28.578125 -32.859375 L 14.8125 -32.859375 L 14.8125 -30.5 L 25.75 -30.5 L 25.75 -16.40625 L 14.8125 -16.40625 L 14.8125 -14.09375 L 28.578125 -14.09375 Z M 28.578125 0 "/></g></g></g><g fill="#00f7ff" fill-opacity="1"><g transform="translate(810.143355, 285.87742)"><g/></g></g><g fill="#00f7ff" fill-opacity="1"><g transform="translate(847.740833, 285.87742)"><g><path d="M 15.796875 0 L 0.703125 0 L 0.703125 -46.953125 L 15.796875 -46.953125 C 19.523438 -46.953125 22.609375 -45.960938 25.046875 -43.984375 C 27.492188 -42.015625 29.320312 -39.265625 30.53125 -35.734375 C 31.738281 -32.210938 32.320312 -28.132812 32.28125 -23.5 C 32.28125 -18.707031 31.578125 -14.546875 30.171875 -11.015625 C 28.765625 -7.492188 26.832031 -4.773438 24.375 -2.859375 C 21.914062 -0.953125 19.054688 0 15.796875 0 Z M 15.796875 -33.65625 L 14.765625 -33.65625 L 14.765625 -13.71875 L 15.796875 -13.71875 C 16.234375 -13.71875 16.609375 -14.078125 16.921875 -14.796875 C 17.234375 -15.523438 17.5 -16.484375 17.71875 -17.671875 C 17.9375 -18.859375 18.082031 -20.15625 18.15625 -21.5625 C 18.238281 -22.976562 18.253906 -24.390625 18.203125 -25.796875 C 18.160156 -27.210938 18.035156 -28.515625 17.828125 -29.703125 C 17.628906 -30.890625 17.363281 -31.84375 17.03125 -32.5625 C 16.707031 -33.289062 16.296875 -33.65625 15.796875 -33.65625 Z M 15.796875 -33.65625 "/></g></g></g><g fill="#00f7ff" fill-opacity="1"><g transform="translate(903.289329, 285.87742)"><g><path d="M 28.578125 0 L 0.703125 0 L 0.703125 -46.953125 L 28.578125 -46.953125 L 28.578125 -32.859375 L 14.8125 -32.859375 L 14.8125 -30.5 L 25.75 -30.5 L 25.75 -16.40625 L 14.8125 -16.40625 L 14.8125 -14.09375 L 28.578125 -14.09375 Z M 28.578125 0 "/></g></g></g><g fill="#00f7ff" fill-opacity="1"><g transform="translate(955.125384, 285.87742)"><g/></g></g><g fill="#00f7ff" fill-opacity="1"><g transform="translate(992.722885, 285.87742)"><g><path d="M 0 -46.953125 L 14.09375 -46.953125 L 18.890625 -23.453125 L 23.640625 -46.953125 L 37.734375 -46.953125 L 25.5625 0 L 12.171875 0 Z M 0 -46.953125 "/></g></g></g><g fill="#00f7ff" fill-opacity="1"><g transform="translate(1053.017542, 285.87742)"><g><path d="M 0.703125 0 L 0.703125 -46.953125 L 14.8125 -46.953125 L 14.8125 0 Z M 0.703125 0 "/></g></g></g><g fill="#00f7ff" fill-opacity="1"><g transform="translate(1091.084938, 285.87742)"><g><path d="M 0.703125 -32.953125 L 0.703125 -47 L 31.25 -47 L 31.25 -32.953125 L 23.03125 -32.953125 L 23.03125 0 L 8.9375 0 L 8.9375 -32.953125 Z M 0.703125 -32.953125 "/></g></g></g><g fill="#00f7ff" fill-opacity="1"><g transform="translate(1145.599551, 285.87742)"><g><path d="M 0.703125 0 L 0.703125 -46.953125 L 17.25 -46.953125 C 18.8125 -46.953125 20.476562 -46.703125 22.25 -46.203125 C 24.019531 -45.703125 25.6875 -44.878906 27.25 -43.734375 C 28.820312 -42.585938 30.101562 -41.070312 31.09375 -39.1875 C 32.082031 -37.3125 32.578125 -34.992188 32.578125 -32.234375 C 32.578125 -30.015625 32.289062 -28.128906 31.71875 -26.578125 C 31.15625 -25.023438 30.46875 -23.769531 29.65625 -22.8125 C 28.84375 -21.863281 28.046875 -21.140625 27.265625 -20.640625 L 34.21875 0.046875 L 20.484375 0 L 14.8125 -17.765625 L 14.8125 0 Z M 15.984375 -33.796875 L 14.8125 -33.84375 L 14.8125 -27.03125 L 15.9375 -27.03125 C 16.53125 -27.03125 17.015625 -27.25 17.390625 -27.6875 C 17.765625 -28.125 18.019531 -28.671875 18.15625 -29.328125 C 18.300781 -29.984375 18.316406 -30.648438 18.203125 -31.328125 C 18.097656 -32.003906 17.863281 -32.578125 17.5 -33.046875 C 17.144531 -33.515625 16.640625 -33.765625 15.984375 -33.796875 Z M 15.984375 -33.796875 "/></g></g></g><g fill="#00f7ff" fill-opacity="1"><g transform="translate(1201.382994, 285.87742)"><g><path d="M 28.578125 0 L 0.703125 0 L 0.703125 -46.953125 L 28.578125 -46.953125 L 28.578125 -32.859375 L 14.8125 -32.859375 L 14.8125 -30.5 L 25.75 -30.5 L 25.75 -16.40625 L 14.8125 -16.40625 L 14.8125 -14.09375 L 28.578125 -14.09375 Z M 28.578125 0 "/></g></g></g><g fill="#00f7ff" fill-opacity="1"><g transform="translate(1253.219095, 285.87742)"><g><path d="M 11.75 -16.40625 C 11.75 -17.15625 11.484375 -17.875 10.953125 -18.5625 C 10.421875 -19.25 9.738281 -19.960938 8.90625 -20.703125 C 8.070312 -21.441406 7.175781 -22.238281 6.21875 -23.09375 C 5.269531 -23.957031 4.378906 -24.945312 3.546875 -26.0625 C 2.710938 -27.175781 2.03125 -28.46875 1.5 -29.9375 C 0.96875 -31.40625 0.703125 -33.097656 0.703125 -35.015625 C 0.703125 -37.648438 1.21875 -39.851562 2.25 -41.625 C 3.289062 -43.394531 4.628906 -44.734375 6.265625 -45.640625 C 7.910156 -46.546875 9.644531 -47 11.46875 -47 L 25.890625 -47 L 25.890625 -32.90625 L 22.140625 -32.90625 C 21.515625 -32.90625 20.851562 -32.875 20.15625 -32.8125 C 19.46875 -32.75 18.890625 -32.539062 18.421875 -32.1875 C 17.953125 -31.84375 17.71875 -31.234375 17.71875 -30.359375 C 17.71875 -29.609375 17.96875 -28.957031 18.46875 -28.40625 C 18.96875 -27.863281 19.617188 -27.332031 20.421875 -26.8125 C 21.222656 -26.289062 22.066406 -25.703125 22.953125 -25.046875 C 23.847656 -24.390625 24.695312 -23.59375 25.5 -22.65625 C 26.300781 -21.71875 26.953125 -20.539062 27.453125 -19.125 C 27.953125 -17.71875 28.203125 -15.976562 28.203125 -13.90625 C 28.203125 -11.21875 27.679688 -8.820312 26.640625 -6.71875 C 25.609375 -4.625 24.132812 -2.976562 22.21875 -1.78125 C 20.3125 -0.59375 18.046875 0 15.421875 0 L 1.359375 0 L 1.359375 -14.09375 L 6.765625 -14.09375 C 8.429688 -14.09375 9.675781 -14.257812 10.5 -14.59375 C 11.332031 -14.925781 11.75 -15.53125 11.75 -16.40625 Z M 11.75 -16.40625 "/></g></g></g><g fill="#ffffff" fill-opacity="1"><g transform="translate(496.175382, 225.406053)"><g><path d="M 2.25 0 L 2.25 -149.84375 L 47.84375 -149.84375 C 56.144531 -149.84375 63.394531 -148.441406 69.59375 -145.640625 C 75.800781 -142.847656 80.953125 -139.078125 85.046875 -134.328125 C 89.148438 -129.578125 92.222656 -124.222656 94.265625 -118.265625 C 96.316406 -112.316406 97.34375 -106.195312 97.34375 -99.90625 C 97.34375 -92.40625 96.269531 -85.351562 94.125 -78.75 C 91.976562 -72.144531 88.90625 -66.316406 84.90625 -61.265625 C 80.90625 -56.222656 76.050781 -52.25 70.34375 -49.34375 C 64.644531 -46.445312 58.195312 -44.945312 51 -44.84375 C 50.394531 -44.84375 50.144531 -44.84375 50.25 -44.84375 C 50.351562 -44.84375 50.28125 -44.816406 50.03125 -44.765625 C 49.78125 -44.722656 48.851562 -44.703125 47.25 -44.703125 L 47.25 0 Z M 47.25 -105 L 47.25 -82.65625 C 48.644531 -82.65625 49.941406 -83.65625 51.140625 -85.65625 C 52.347656 -87.65625 52.953125 -90.601562 52.953125 -94.5 C 52.953125 -98.394531 52.375 -101.117188 51.21875 -102.671875 C 50.070312 -104.222656 48.75 -105 47.25 -105 Z M 47.25 -105 "/></g></g></g><g fill="#ffffff" fill-opacity="1"><g transform="translate(595.7754, 225.406053)"><g><path d="M 2.25 0 L 2.25 -149.84375 L 55.046875 -149.84375 C 60.046875 -149.84375 65.367188 -149.039062 71.015625 -147.4375 C 76.671875 -145.84375 82 -143.21875 87 -139.5625 C 92 -135.914062 96.070312 -131.09375 99.21875 -125.09375 C 102.375 -119.09375 103.953125 -111.695312 103.953125 -102.90625 C 103.953125 -95.800781 103.050781 -89.773438 101.25 -84.828125 C 99.445312 -79.878906 97.242188 -75.878906 94.640625 -72.828125 C 92.046875 -69.773438 89.5 -67.445312 87 -65.84375 L 109.203125 0.15625 L 65.40625 0 L 47.25 -56.703125 L 47.25 0 Z M 51 -107.84375 L 47.25 -108 L 47.25 -86.25 L 50.84375 -86.25 C 52.75 -86.25 54.300781 -86.945312 55.5 -88.34375 C 56.695312 -89.75 57.519531 -91.5 57.96875 -93.59375 C 58.425781 -95.695312 58.476562 -97.820312 58.125 -99.96875 C 57.769531 -102.125 57.019531 -103.953125 55.875 -105.453125 C 54.726562 -106.953125 53.101562 -107.75 51 -107.84375 Z M 51 -107.84375 "/></g></g></g><g fill="#ffffff" fill-opacity="1"><g transform="translate(700.475431, 225.406053)"><g><path d="M 55.203125 2.25 C 44.796875 2.25 36.164062 0.398438 29.3125 -3.296875 C 22.46875 -6.992188 17.070312 -12.242188 13.125 -19.046875 C 9.175781 -25.847656 6.375 -34 4.71875 -43.5 C 3.070312 -53 2.25 -63.550781 2.25 -75.15625 C 2.25 -86.75 3.070312 -97.242188 4.71875 -106.640625 C 6.375 -116.046875 9.175781 -124.171875 13.125 -131.015625 C 17.070312 -137.867188 22.46875 -143.117188 29.3125 -146.765625 C 36.164062 -150.421875 44.796875 -152.25 55.203125 -152.25 C 65.597656 -152.25 74.21875 -150.421875 81.0625 -146.765625 C 87.914062 -143.117188 93.316406 -137.867188 97.265625 -131.015625 C 101.222656 -124.171875 104.023438 -116.046875 105.671875 -106.640625 C 107.328125 -97.242188 108.15625 -86.75 108.15625 -75.15625 C 108.15625 -63.550781 107.328125 -53 105.671875 -43.5 C 104.023438 -34 101.222656 -25.847656 97.265625 -19.046875 C 93.316406 -12.242188 87.914062 -6.992188 81.0625 -3.296875 C 74.21875 0.398438 65.597656 2.25 55.203125 2.25 Z M 55.203125 -106.65625 C 52.097656 -106.550781 49.992188 -103.597656 48.890625 -97.796875 C 47.796875 -91.992188 47.25 -83.894531 47.25 -73.5 C 47.25 -64.394531 47.796875 -57.066406 48.890625 -51.515625 C 49.992188 -45.972656 52.097656 -43.203125 55.203125 -43.203125 C 58.296875 -43.203125 60.441406 -45.972656 61.640625 -51.515625 C 62.847656 -57.066406 63.398438 -64.394531 63.296875 -73.5 C 63.203125 -83.894531 62.601562 -92.019531 61.5 -97.875 C 60.394531 -103.726562 58.296875 -106.65625 55.203125 -106.65625 Z M 55.203125 -106.65625 "/></g></g></g><g fill="#ffffff" fill-opacity="1"><g transform="translate(799.625432, 225.406053)"><g><path d="M 0 -149.84375 L 45 -149.84375 L 60.296875 -74.84375 L 75.453125 -149.84375 L 120.453125 -149.84375 L 81.59375 0 L 38.84375 0 Z M 0 -149.84375 "/></g></g></g><g fill="#ffffff" fill-opacity="1"><g transform="translate(920.07545, 225.406053)"><g><path d="M 2.25 0 L 2.25 -149.84375 L 47.25 -149.84375 L 47.25 0 Z M 2.25 0 "/></g></g></g><g fill="#ffffff" fill-opacity="1"><g transform="translate(969.575492, 225.406053)"><g><path d="M 2.25 -105.15625 L 2.25 -150 L 99.75 -150 L 99.75 -105.15625 L 73.5 -105.15625 L 73.5 0 L 28.5 0 L 28.5 -105.15625 Z M 2.25 -105.15625 "/></g></g><g transform="translate(1071.575484, 225.406053)"><g><path d="M 2.25 0 L 2.25 -149.84375 L 55.046875 -149.84375 C 60.046875 -149.84375 65.367188 -149.039062 71.015625 -147.4375 C 76.671875 -145.84375 82 -143.21875 87 -139.5625 C 92 -135.914062 96.070312 -131.09375 99.21875 -125.09375 C 102.375 -119.09375 103.953125 -111.695312 103.953125 -102.90625 C 103.953125 -95.800781 103.050781 -89.773438 101.25 -84.828125 C 99.445312 -79.878906 97.242188 -75.878906 94.640625 -72.828125 C 92.046875 -69.773438 89.5 -67.445312 87 -65.84375 L 109.203125 0.15625 L 65.40625 0 L 47.25 -56.703125 L 47.25 0 Z M 51 -107.84375 L 47.25 -108 L 47.25 -86.25 L 50.84375 -86.25 C 52.75 -86.25 54.300781 -86.945312 55.5 -88.34375 C 56.695312 -89.75 57.519531 -91.5 57.96875 -93.59375 C 58.425781 -95.695312 58.476562 -97.820312 58.125 -99.96875 C 57.769531 -102.125 57.019531 -103.953125 55.875 -105.453125 C 54.726562 -106.953125 53.101562 -107.75 51 -107.84375 Z M 51 -107.84375 "/></g></g></g><g fill="#ffffff" fill-opacity="1"><g transform="translate(1176.275506, 225.406053)"><g><path d="M 55.203125 2.25 C 44.796875 2.25 36.164062 0.398438 29.3125 -3.296875 C 22.46875 -6.992188 17.070312 -12.242188 13.125 -19.046875 C 9.175781 -25.847656 6.375 -34 4.71875 -43.5 C 3.070312 -53 2.25 -63.550781 2.25 -75.15625 C 2.25 -86.75 3.070312 -97.242188 4.71875 -106.640625 C 6.375 -116.046875 9.175781 -124.171875 13.125 -131.015625 C 17.070312 -137.867188 22.46875 -143.117188 29.3125 -146.765625 C 36.164062 -150.421875 44.796875 -152.25 55.203125 -152.25 C 65.597656 -152.25 74.21875 -150.421875 81.0625 -146.765625 C 87.914062 -143.117188 93.316406 -137.867188 97.265625 -131.015625 C 101.222656 -124.171875 104.023438 -116.046875 105.671875 -106.640625 C 107.328125 -97.242188 108.15625 -86.75 108.15625 -75.15625 C 108.15625 -63.550781 107.328125 -53 105.671875 -43.5 C 104.023438 -34 101.222656 -25.847656 97.265625 -19.046875 C 93.316406 -12.242188 87.914062 -6.992188 81.0625 -3.296875 C 74.21875 0.398438 65.597656 2.25 55.203125 2.25 Z M 55.203125 -106.65625 C 52.097656 -106.550781 49.992188 -103.597656 48.890625 -97.796875 C 47.796875 -91.992188 47.25 -83.894531 47.25 -73.5 C 47.25 -64.394531 47.796875 -57.066406 48.890625 -51.515625 C 49.992188 -45.972656 52.097656 -43.203125 55.203125 -43.203125 C 58.296875 -43.203125 60.441406 -45.972656 61.640625 -51.515625 C 62.847656 -57.066406 63.398438 -64.394531 63.296875 -73.5 C 63.203125 -83.894531 62.601562 -92.019531 61.5 -97.875 C 60.394531 -103.726562 58.296875 -106.65625 55.203125 -106.65625 Z M 55.203125 -106.65625 "/></g></g></g></svg>